<?xml version="1.0" encoding="UTF-8" standalone="no"?>
<!-- Created with Inkscape (http://www.inkscape.org/) -->

<svg
   xmlns:dc="http://purl.org/dc/elements/1.1/"
   xmlns:cc="http://creativecommons.org/ns#"
   xmlns:rdf="http://www.w3.org/1999/02/22-rdf-syntax-ns#"
   xmlns:svg="http://www.w3.org/2000/svg"
   xmlns="http://www.w3.org/2000/svg"
   xmlns:sodipodi="http://sodipodi.sourceforge.net/DTD/sodipodi-0.dtd"
   xmlns:inkscape="http://www.inkscape.org/namespaces/inkscape"
   width="100"
   height="100"
   id="svg2"
   version="1.1"
   inkscape:version="0.48.3.1 r9886"
   sodipodi:docname="plus_neg.svg"
   inkscape:export-filename="/home/sam/www/wp-content/plugins/upsmart_sitemanager/css/delete_row_x.png"
   inkscape:export-xdpi="90"
   inkscape:export-ydpi="90">
  <defs
     id="defs4" />
  <sodipodi:namedview
     id="base"
     pagecolor="#ffffff"
     bordercolor="#666666"
     borderopacity="1.0"
     inkscape:pageopacity="0.0"
     inkscape:pageshadow="2"
     inkscape:zoom="3.1466252"
     inkscape:cx="-23.189879"
     inkscape:cy="36.047278"
     inkscape:document-units="px"
     inkscape:current-layer="layer1"
     showgrid="false"
     inkscape:window-width="1600"
     inkscape:window-height="808"
     inkscape:window-x="-4"
     inkscape:window-y="35"
     inkscape:window-maximized="1"
     showguides="true"
     inkscape:guide-bbox="true" />
  <metadata
     id="metadata7">
    <rdf:RDF>
      <cc:Work
         rdf:about="">
        <dc:format>image/svg+xml</dc:format>
        <dc:type
           rdf:resource="http://purl.org/dc/dcmitype/StillImage" />
        <dc:title />
      </cc:Work>
    </rdf:RDF>
  </metadata>
  <g
     inkscape:groupmode="layer"
     id="layer3"
     inkscape:label="Layer#1">
    <rect
       style="opacity:0.92000002;fill:#666666;fill-opacity:1;stroke:none"
       id="rect5078"
       width="100"
       height="100"
       x="0"
       y="0" />
  </g>
  <g
     inkscape:groupmode="layer"
     id="layer2"
     inkscape:label="Layer"
     style="display:inline">
    <path
       sodipodi:type="arc"
       style="fill:#ffffff;fill-opacity:1;stroke:none"
       id="path3096"
       sodipodi:cx="50.760166"
       sodipodi:cy="51.765217"
       sodipodi:rx="49.244938"
       sodipodi:ry="47.72971"
       d="m 100.0051,51.765217 a 49.244938,47.72971 0 1 1 -98.4898717,0 49.244938,47.72971 0 1 1 98.4898717,0 z"
       transform="matrix(0.91379951,0,0,0.942809,8.6153849,1.1952877)" />
  </g>
  <g
     inkscape:label="Layer 1"
     inkscape:groupmode="layer"
     id="layer1"
     transform="translate(0,-952.36218)"
     style="display:inline">
    <text
       xml:space="preserve"
       style="font-size:1723.35424804999956905px;font-style:normal;font-variant:normal;font-weight:normal;font-stretch:normal;text-align:center;line-height:125%;writing-mode:lr-tb;text-anchor:middle;fill:#ff7700;fill-opacity:1;stroke:none;font-family:DejaVu Sans;-inkscape-font-specification:DejaVu Sans"
       x="55"
       y="1032.585"
       id="text3098"
       sodipodi:linespacing="125%"><tspan
         sodipodi:role="line"
         id="tspan3100"
         x="55"
         y="1032.585"
         style="font-size:96.41143035999999711px;font-weight:bold;fill:#ff7700;fill-opacity:1">+</tspan></text>
    <rect
       style="fill:#fff000;fill-opacity:0;stroke:none"
       id="rect2994"
       width="10.786517"
       height="5.1685395"
       x="1.3483146"
       y="1.1235955"
       transform="translate(0,952.36218)" />
    <path
       style="fill:#ff7700;fill-opacity:1;stroke:none"
       d="m -0.11754074,50.001267 0,-50.05362574 50.21252574,0 50.212525,0 0,21.63693774 c 0,17.167252 -0.0821,21.609992 -0.39725,21.506494 -0.218488,-0.07174 -0.4435,-0.548441 -0.500027,-1.059335 -0.157372,-1.422346 -1.591445,-6.37031 -2.618151,-9.033386 C 92.348273,21.471987 81.756993,11.458113 69.639734,7.3262706 48.452915,0.10181481 25.045912,9.5419129 14.892311,29.406032 0.2025152,58.144588 19.571778,92.64612 51.674366,94.924132 69.262622,96.1722 85.468795,87.53323 94.241908,72.232803 c 2.280698,-3.977573 4.799447,-10.928067 5.168325,-14.262007 0.05653,-0.510894 0.281539,-0.987595 0.500027,-1.059335 0.31519,-0.103498 0.39725,4.339242 0.39725,21.506495 l 0,21.636934 -50.212525,0 -50.21252574,0 0,-50.053623 z"
       id="path3757"
       inkscape:connector-curvature="0"
       transform="translate(0,952.36218)" />
  </g>
</svg>
